<?xml version="1.0" encoding="utf-8"?>
<!-- Generator: Adobe Illustrator 23.0.0, SVG Export Plug-In . SVG Version: 6.00 Build 0)  -->
<svg version="1.1" id="Layer_1" xmlns="http://www.w3.org/2000/svg" xmlns:xlink="http://www.w3.org/1999/xlink" x="0px" y="0px"
	 viewBox="0 0 2126 463" style="enable-background:new 0 0 2126 463;" xml:space="preserve">
<style type="text/css">
	.st0{display:none;}
	.st1{display:inline;}
	.st2{fill:#0000FF;}
	.st3{display:none;fill:#FFFFFF;}
</style>
<g class="st0">
	<path class="st1" d="M1193.6,24.5c-25.4,0-49.3,9.9-67.2,27.8s-27.8,41.8-27.8,67.2v51.4c0,29.9,24.4,54.3,54.3,54.3h0.7V259
		c0,0.5,0.1,1.1,0.2,1.6l4.9,22.6l-4.9,22.6c-0.2,1.1-0.2,2.2,0,3.3l4.9,22.6l-4.9,22.6c-0.2,1.1-0.2,2.2,0,3.3l4.9,22.6l-4.9,22.6
		c-0.2,1.1-0.2,2.2,0,3.3l4.9,22.5l-4.8,18.8c-0.7,2.8,0.2,5.7,2.3,7.6l32.3,29.8c3,2.7,7.5,2.7,10.5,0l32.3-29.8
		c0.1-0.1,0.2-0.1,0.2-0.2c1.4-1.5,2.3-3.4,2.3-5.5V225.2h0.7c15,0,28.6-6.1,38.4-15.9c9.8-9.8,15.9-23.4,15.9-38.4v-51.4
		C1288.7,67.1,1246,24.5,1193.6,24.5z M1174.1,430.7c0.3-1.2,0.3-2.4,0.1-3.6l-4.9-22.6l4.9-22.6c0.2-1.1,0.2-2.2,0-3.3l-4.9-22.6
		l4.9-22.6c0.2-1.1,0.2-2.2,0-3.3l-4.9-22.6l4.9-22.6c0.2-1.1,0.2-2.2,0-3.3l-5.1-23.4v-33h25.7v242.3l-1.2,1.1l-23.7-21.9
		L1174.1,430.7z M1218.2,446l-7.9,7.3V225.2h7.9V446z M1273.2,119.5v51.4c0,21.4-17.4,38.8-38.8,38.8h-81.4
		c-10.4,0-20.1-4-27.5-11.4c-7.3-7.3-11.4-17.1-11.4-27.5v-51.4c0-21.3,8.3-41.2,23.3-56.3c15-15,35-23.3,56.3-23.3v-7.7V40
		C1237.5,40,1273.2,75.6,1273.2,119.5z"/>
	<path class="st1" d="M1152.9,225.2h0.7v33.8c0,0.5,0.1,1.1,0.2,1.6l4.9,22.6l-4.9,22.6c-0.2,1.1-0.2,2.2,0,3.3l4.9,22.6l-4.9,22.6
		c-0.2,1.1-0.2,2.2,0,3.3l4.9,22.6l-4.9,22.6c-0.2,1.1-0.2,2.2,0,3.3l4.9,22.5l-4.8,18.8c-0.7,2.8,0.2,5.7,2.3,7.6l32.3,29.8
		c3,2.7,7.5,2.7,10.5,0l32.3-29.8c0.1-0.1,0.2-0.1,0.2-0.2c1.4-1.5,2.3-3.4,2.3-5.5V225.2h0.7 M1174.1,430.7
		c0.3-1.2,0.3-2.4,0.1-3.6l-4.9-22.6l4.9-22.6c0.2-1.1,0.2-2.2,0-3.3l-4.9-22.6l4.9-22.6c0.2-1.1,0.2-2.2,0-3.3l-4.9-22.6l4.9-22.6
		c0.2-1.1,0.2-2.2,0-3.3l-5.1-23.4v-33h25.7v242.3l-1.2,1.1l-23.7-21.9L1174.1,430.7z M1218.2,446l-7.9,7.3V225.2h7.9V446z"/>
	<path class="st1" d="M1233.7,225.2h0.7c15,0,28.6-6.1,38.4-15.9c9.8-9.8,15.9-23.4,15.9-38.4v-51.4c0-52.4-42.6-95-95-95
		c-25.4,0-49.3,9.9-67.2,27.8s-27.8,41.8-27.8,67.2v51.4c0,29.9,24.4,54.3,54.3,54.3h0.7L1233.7,225.2L1233.7,225.2z M1273.2,119.5
		v51.4c0,21.4-17.4,38.8-38.8,38.8h-81.4c-10.4,0-20.1-4-27.5-11.4c-7.3-7.3-11.4-17.1-11.4-27.5v-51.4c0-21.3,8.3-41.2,23.3-56.3
		c15-15,35-23.3,56.3-23.3v-7.7V40C1237.5,40,1273.2,75.6,1273.2,119.5z"/>
	<path class="st1" d="M1194.5,61.5c-23.8-0.4-45.7,14.2-54.7,36.2c-1,2.4-0.7,5.1,0.7,7.2c1.4,2.1,3.8,3.4,6.4,3.4l93.2,0.7
		c2.1,0,4.1-0.8,5.5-2.3c0.3-0.3,0.6-0.7,0.9-1.1c1.4-2.1,1.8-4.8,0.8-7.2C1238.7,76.4,1217.9,61.9,1194.5,61.5z M1227,93.5
		l-66.6-0.5c8.1-10.1,20.6-16.2,33.9-16C1207.3,77.2,1219.2,83.4,1227,93.5z"/>
</g>
<g>
	<g>
		<path class="st0" d="M1041.8,0.3c-25.4,0-49.3,9.9-67.2,27.8S946.8,70,946.8,95.4v51.4c0,29.9,24.4,54.3,54.3,54.3h0.7v33.8
			c0,0.6,0.1,1.1,0.2,1.6l4.9,22.6l-4.9,22.6c-0.2,1.1-0.2,2.2,0,3.3l4.9,22.6l-4.9,22.6c-0.2,1.1-0.2,2.2,0,3.3l4.9,22.6l-4.9,22.6
			c-0.2,1.1-0.2,2.2,0,3.3l4.9,22.5l-4.8,18.8c-0.7,2.8,0.2,5.7,2.3,7.6l32.3,29.8c3,2.7,7.5,2.7,10.5,0l32.3-29.8
			c0.1-0.1,0.2-0.1,0.2-0.2c1.4-1.5,2.3-3.4,2.3-5.5V201.1h0.7c15,0,28.6-6.1,38.4-15.9c9.8-9.8,15.9-23.4,15.9-38.4V95.4
			C1136.9,43,1094.2,0.3,1041.8,0.3z M1022.3,406.6c0.3-1.2,0.3-2.4,0.1-3.6l-4.9-22.6l4.9-22.6c0.2-1.1,0.2-2.2,0-3.3l-4.9-22.6
			l4.9-22.6c0.2-1.1,0.2-2.2,0-3.3l-4.9-22.6l4.9-22.6c0.2-1.1,0.2-2.2,0-3.3l-5.1-23.4v-33h25.7v242.3l-1.2,1.1l-23.7-21.9
			L1022.3,406.6z M1066.4,421.8l-7.9,7.3V201.1h7.9V421.8z M1121.4,95.4v51.4c0,21.4-17.4,38.8-38.8,38.8h-81.4
			c-10.4,0-20.1-4-27.5-11.4c-7.3-7.3-11.4-17.1-11.4-27.5V95.4c0-21.3,8.3-41.2,23.3-56.3c15-15,35-23.3,56.3-23.3V8.1v7.7
			C1085.7,15.8,1121.4,51.5,1121.4,95.4z"/>
		<path class="st0" d="M1001.1,201.1h0.7v33.8c0,0.6,0.1,1.1,0.2,1.6l4.9,22.6l-4.9,22.6c-0.2,1.1-0.2,2.2,0,3.3l4.9,22.6l-4.9,22.6
			c-0.2,1.1-0.2,2.2,0,3.3l4.9,22.6l-4.9,22.6c-0.2,1.1-0.2,2.2,0,3.3l4.9,22.5l-4.8,18.8c-0.7,2.8,0.2,5.7,2.3,7.6l32.3,29.8
			c3,2.7,7.5,2.7,10.5,0l32.3-29.8c0.1-0.1,0.2-0.1,0.2-0.2c1.4-1.5,2.3-3.4,2.3-5.5V201.1h0.7 M1022.3,406.6
			c0.3-1.2,0.3-2.4,0.1-3.6l-4.9-22.6l4.9-22.6c0.2-1.1,0.2-2.2,0-3.3l-4.9-22.6l4.9-22.6c0.2-1.1,0.2-2.2,0-3.3l-4.9-22.6l4.9-22.6
			c0.2-1.1,0.2-2.2,0-3.3l-5.1-23.4v-33h25.7v242.3l-1.2,1.1l-23.7-21.9L1022.3,406.6z M1066.4,421.8l-7.9,7.3V201.1h7.9V421.8z"/>
		<path class="st2" d="M1001.1,201.1h0.7v33.8c0,0.6,0.1,1.1,0.2,1.6l4.9,22.6l-4.9,22.6c-0.2,1.1-0.2,2.2,0,3.3l4.9,22.6l-4.9,22.6
			c-0.2,1.1-0.2,2.2,0,3.3l4.9,22.6l-4.9,22.6c-0.2,1.1-0.2,2.2,0,3.3l4.9,22.5l-4.8,18.8c-0.7,2.8,0.2,5.7,2.3,7.6l32.3,29.8
			c3,2.7,7.5,2.7,10.5,0l32.3-29.8c0.1-0.1,0.2-0.1,0.2-0.2c1.4-1.5,2.3-3.4,2.3-5.5V201.1h0.7 M1022.3,406.6
			c0.3-1.2,0.3-2.4,0.1-3.6l-4.9-22.6l4.9-22.6c0.2-1.1,0.2-2.2,0-3.3l-4.9-22.6l4.9-22.6c0.2-1.1,0.2-2.2,0-3.3l-4.9-22.6l4.9-22.6
			c0.2-1.1,0.2-2.2,0-3.3l-5.1-23.4v-33h25.7v242.3l-1.2,1.1l-23.7-21.9L1022.3,406.6z M1066.4,421.8l-7.9,7.3V201.1h7.9V421.8z"/>
		<path class="st3" d="M1042.7,37.4C1019,37,997,51.6,988.1,73.6c-1,2.4-0.7,5.1,0.7,7.2c1.4,2.1,3.8,3.4,6.4,3.4l93.2,0.7
			c2.1,0,4.1-0.8,5.5-2.3c0.3-0.3,0.6-0.7,0.9-1.1c1.4-2.1,1.8-4.8,0.8-7.2C1086.9,52.3,1066.2,37.8,1042.7,37.4z M1075.2,69.4
			l-66.6-0.5c8.1-10.1,20.6-16.2,33.9-16C1055.5,53.1,1067.4,59.3,1075.2,69.4z"/>
		<path class="st2" d="M1041.8,0.3c-25.4,0-49.3,9.9-67.2,27.8c-18,18-27.8,41.8-27.8,67.2v51.4c0,30,24.4,54.3,54.3,54.3h0.7h80.1
			v0h0.7c15,0,28.6-6.1,38.4-15.9c9.8-9.8,15.9-23.4,15.9-38.4V95.4C1136.9,43,1094.2,0.3,1041.8,0.3z M1094.9,81.6
			c-0.3,0.4-0.6,0.8-0.9,1.1c-1.5,1.5-3.4,2.3-5.5,2.3l-93.2-0.7c-2.6,0-5-1.3-6.4-3.4c-1.4-2.1-1.7-4.8-0.7-7.2
			c8.9-22,30.9-36.6,54.7-36.2c23.4,0.3,44.2,14.9,52.9,37C1096.6,76.8,1096.3,79.5,1094.9,81.6z"/>
	</g>
	<g>
		<path d="M1321.3,210.3l-72.2-93.2l-38.1,41.7v51.5h-22.4v-196h22.4v115.1l105.3-115.1h26.9l-78.1,85.4l83.4,110.6H1321.3z"/>
		<path d="M1509.2,63v147.3h-21.8v-33.3c-9.8,23-29.4,33.9-56,34.2c-34.4,0-55.2-21.8-55.2-57.4V63h21.8v85.1
			c0,26.3,15.4,42,40.9,42c30.5-0.6,48.4-23,48.4-54.9V63H1509.2z"/>
		<path d="M1559.9,63l43.7,125.2L1646.4,63h23l43.4,125.2L1755.9,63h22.7L1724,210.3h-22.7l-43.4-120.7l-43.1,120.7h-22.7L1536.9,63
			C1536.9,63,1559.9,63,1559.9,63z"/>
		<path d="M1895.9,210.3v-23c-11.8,16-30.5,23.8-54,23.8c-30.5,0-50.1-19.3-50.1-44.5c0-25.8,20.4-42,55.2-42.3h48.4v-9.2
			c0-21.6-13.4-34.7-39.5-34.7c-16.2,0-31.4,6.2-46.8,17.1l-9.2-15.4c19-12.6,35-19.9,60.2-19.9c36.4,0,56.6,19.3,56.8,50.7
			l0.3,97.4L1895.9,210.3L1895.9,210.3z M1895.6,159.6v-17.9h-45.9c-24.6,0-37.5,7.6-37.5,24.1c0,16.2,13.2,27.2,33.9,27.2
			C1871,192.9,1890,180.6,1895.6,159.6z"/>
		<path d="M1990.8,20.7c0,8.4-6.2,14.8-14.3,14.8s-14.3-6.4-14.3-14.8c0-8.7,6.2-15.1,14.3-15.1C1984.6,5.6,1990.8,12,1990.8,20.7z
			 M1987.4,63v147.3h-21.6V63H1987.4z"/>
		<path d="M2116.8,200.2c-10.4,7-21.6,10.9-33.3,10.9c-21.6,0.3-37.5-12.6-37.5-41.7V84.5h-21.3V67.5h21.3V28.8h21.6v38.6h46.8v17.1
			h-46.8v81.2c0,17.9,7,25.2,19.6,25.2c7.6-0.3,15.4-2.8,23.5-7.6L2116.8,200.2z"/>
		<path d="M1266.2,441.5c37,0,59.4-22.4,59.4-61V264.3h22.1v116.2c0,51-30.5,81.5-81.5,81.5c-51.2,0-82-30.5-82-81.5V264.3h22.4
			v116.2C1206.5,418.8,1229.2,441.5,1266.2,441.5z"/>
		<path d="M1534.7,369.5v90.7h-21.8v-85.1c0-26.3-15.7-42-41.7-42c-29.1,0.3-47,19.6-49.6,48.2v79h-21.8V313h21.8v32.5
			c10.4-22.4,30.2-33,57.1-33.3C1514,312.1,1534.7,333.7,1534.7,369.5z"/>
		<path d="M1606.7,252.5v207.8h-21.8V252.5H1606.7z"/>
		<path d="M1795.9,386.3c0,44-31.1,74.8-74.8,74.8c-44,0-74.8-30.8-74.8-74.8c0-43.7,30.8-74.2,74.8-74.2
			C1764.8,312.1,1795.9,342.7,1795.9,386.3z M1668.3,386.6c0,33,21.8,55.4,52.9,55.4c30.8,0,52.9-22.4,52.9-55.4
			c0-32.5-22.1-55.2-52.9-55.2C1690.1,331.5,1668.3,354.1,1668.3,386.6z"/>
		<path d="M1893.4,331.7c-30.5,0-52.4,22.4-52.4,54.9c0,32.8,21.8,55.2,52.4,55.2c19.3,0,35.3-6.7,45.6-19l12.6,12.9
			c-13.2,16-33.6,25.5-59.1,25.5c-42.8,0-73.1-30.5-73.1-74.5c0-43.7,30.5-74.5,73.1-74.5c23.8,0,43.4,8.1,56.8,21.8l-12,15.1
			C1926.1,338.2,1911.3,331.7,1893.4,331.7z"/>
		<path d="M2045.7,385.5l-31.1,32.2v42.6h-21.8V252.5h21.8v136.9l75.9-76.4h25.8l-55.2,56.8l61,90.4h-26L2045.7,385.5z"/>
	</g>
</g>
<g>
	<path d="M222.2,148.1c0,7.4-1.1,12.1-4.5,12.1h-12.4c-12.8,0-23.4-3.4-31.5-9.7c-7.2,6.5-18,9.7-32.6,9.7H60.7
		c-31.5,0-49.5-19.1-49.5-49.7c0-20.9,8.5-35.6,23-47.7l20.9,14.6c-12.6,10.8-18,20.7-18,32.8c0,15.5,9,25.9,25.6,25.9h76.5
		c16.6,0,21.1-6.3,21.1-21.6V51h25.9v63.9c0,6.8-0.7,12.8-2,18c3.8,2.3,8.6,3.4,14.2,3.4h19.4C221.1,136.2,222.2,140.7,222.2,148.1z
		 M70.6,21c0-8.3,6.1-14.2,13.7-14.2C92.2,6.8,98,12.7,98,21c0,8.1-5.8,14.2-13.7,14.2C76.7,35.2,70.6,29.1,70.6,21z M106.1,21
		c0-8.3,6.1-14.2,13.7-14.2c7.9,0,13.7,5.9,13.7,14.2c0,8.1-5.8,14.2-13.7,14.2C112.2,35.2,106.1,29.1,106.1,21z"/>
	<path d="M261.1,148.1c0,7.4-1.1,12.1-4.5,12.1h-38.9c-3.4,0-4.5-4.7-4.5-12.1s1.1-11.9,4.5-11.9h38.9
		C260,136.2,261.1,140.7,261.1,148.1z"/>
	<path d="M300.1,148.1c0,7.4-1.1,12.1-4.5,12.1h-38.9c-3.4,0-4.5-4.7-4.5-12.1s1.1-11.9,4.5-11.9h38.9
		C299,136.2,300.1,140.7,300.1,148.1z"/>
	<path d="M339,148.1c0,7.4-1.1,12.1-4.5,12.1h-38.9c-3.4,0-4.5-4.7-4.5-12.1s1.1-11.9,4.5-11.9h38.9
		C337.9,136.2,339,140.7,339,148.1z"/>
	<path d="M377.9,148.1c0,7.4-1.1,12.1-4.5,12.1h-38.9c-3.4,0-4.5-4.7-4.5-12.1s1.1-11.9,4.5-11.9h38.9
		C376.8,136.2,377.9,140.7,377.9,148.1z"/>
	<path d="M416.8,148.1c0,7.4-1.1,12.1-4.5,12.1h-38.9c-3.4,0-4.5-4.7-4.5-12.1s1.1-11.9,4.5-11.9h38.9
		C415.7,136.2,416.8,140.7,416.8,148.1z"/>
	<path d="M455.8,148.1c0,7.4-1.1,12.1-4.5,12.1h-38.9c-3.4,0-4.5-4.7-4.5-12.1s1.1-11.9,4.5-11.9h38.9
		C454.6,136.2,455.8,140.7,455.8,148.1z"/>
	<path d="M501,160.3h-49.7c-3.4,0-4.5-4.7-4.5-12.1s1.1-11.9,4.5-11.9h23.9V51H501V160.3z M484.1,191.8c0,8.1-5.9,14.2-13.7,14.2
		c-7.6,0-13.7-6.1-13.7-14.2c0-8.3,6.1-14.2,13.7-14.2C478.3,177.6,484.1,183.5,484.1,191.8z M519.7,191.8c0,8.1-5.8,14.2-13.7,14.2
		c-7.6,0-13.7-6.1-13.7-14.2c0-8.3,6.1-14.2,13.7-14.2C513.8,177.6,519.7,183.5,519.7,191.8z"/>
	<path d="M669.5,148.1c0,7.4-1.1,12.1-4.5,12.1h-26.1v0.4c0,31.7-18.2,50.2-48.2,50.6l-4-24.3c18.5,1.1,26.3-6.5,26.3-26.3v-0.4h-25
		c-34.2,0-62.3-25.4-62.3-58.1c0-32.4,28.1-58,62.3-58c15.8,0,34.9,6.1,49.5,15.5l1.3,0.5v76H665
		C668.4,136.2,669.5,140.7,669.5,148.1z M613,136.2V74.1c-7.4-3.4-15.5-5.8-24.3-5.8c-21.8,0-37.1,15.5-37.1,34
		c0,18.7,15.3,34,37.1,34L613,136.2L613,136.2z"/>
	<path d="M708.4,148.1c0,7.4-1.1,12.1-4.5,12.1H665c-3.4,0-4.5-4.7-4.5-12.1s1.1-11.9,4.5-11.9h38.9
		C707.3,136.2,708.4,140.7,708.4,148.1z"/>
	<path d="M747.4,148.1c0,7.4-1.1,12.1-4.5,12.1h-38.9c-3.4,0-4.5-4.7-4.5-12.1s1.1-11.9,4.5-11.9h38.9
		C746.2,136.2,747.4,140.7,747.4,148.1z"/>
	<path d="M786.3,148.1c0,7.4-1.1,12.1-4.5,12.1h-38.9c-3.4,0-4.5-4.7-4.5-12.1s1.1-11.9,4.5-11.9h38.9
		C785.2,136.2,786.3,140.7,786.3,148.1z"/>
	<path d="M874.7,136.2v24.1h-92.9c-3.4,0-4.5-4.7-4.5-12.1s1.1-11.9,4.5-11.9h67v-1.8c0-34.4-15.3-54.4-42.8-54.4l-16.2-17.1
		l58.5-59.2l16.2,16.9l-36.9,37.6C856.3,66.9,874.7,95.7,874.7,136.2z"/>
	<path d="M175,243.6v166.7l-116.6,0.2c-31.5,0-49.5-19.1-49.5-49.7c0-20.9,8.5-35.8,22.7-47.7l20.5,14.4
		c-12.2,10.6-17.3,20.9-17.3,33.1c0,15.3,9,25.9,25.7,25.9l88.6-0.2V243.6H175z M119.4,333.1H73.3v-15.5h4.5
		c-1.1-2.7-1.8-5.6-1.8-8.5c0-12.4,10.1-20.7,23.8-20.7c6.1,0,13.1,1.6,17.5,3.6l-6.8,14.2c-2.5-1.4-7-2.3-10.3-2.3
		c-6.1,0-9.4,3.1-9.4,6.8c0,3.1,2.9,7,7.7,7h20.9C119.4,317.6,119.4,333.1,119.4,333.1z"/>
	<path d="M345.8,398.1c0,7.4-1.1,12.1-4.5,12.1h-26.1v0.5c0,31.7-18.2,50.2-48.1,50.6l-4-24.3c18.5,1.1,26.3-6.5,26.3-26.3v-0.5h-25
		c-34.2,0-62.3-25.4-62.3-58c0-32.4,28.1-58,62.3-58c15.8,0,34.9,6.1,49.5,15.5l1.4,0.5v76h26.1
		C344.6,386.2,345.8,390.7,345.8,398.1z M289.3,386.2v-62.1c-7.4-3.4-15.5-5.9-24.3-5.9c-21.8,0-37.1,15.5-37.1,34
		c0,18.7,15.3,34,37.1,34L289.3,386.2L289.3,386.2z"/>
	<path d="M384.7,398.1c0,7.4-1.1,12.1-4.5,12.1h-38.9c-3.4,0-4.5-4.7-4.5-12.1s1.1-11.9,4.5-11.9h38.9
		C383.5,386.2,384.7,390.7,384.7,398.1z"/>
	<path d="M423.6,398.1c0,7.4-1.1,12.1-4.5,12.1h-38.9c-3.4,0-4.5-4.7-4.5-12.1s1.1-11.9,4.5-11.9h38.9
		C422.5,386.2,423.6,390.7,423.6,398.1z"/>
	<path d="M462.5,398.1c0,7.4-1.1,12.1-4.5,12.1h-38.9c-3.4,0-4.5-4.7-4.5-12.1s1.1-11.9,4.5-11.9H458
		C461.4,386.2,462.5,390.7,462.5,398.1z"/>
	<path d="M501.4,398.1c0,7.4-1.1,12.1-4.5,12.1H458c-3.4,0-4.5-4.7-4.5-12.1s1.1-11.9,4.5-11.9h38.9
		C500.3,386.2,501.4,390.7,501.4,398.1z"/>
	<path d="M540.4,398.1c0,7.4-1.1,12.1-4.5,12.1h-38.9c-3.4,0-4.5-4.7-4.5-12.1s1.1-11.9,4.5-11.9h38.9
		C539.2,386.2,540.4,390.7,540.4,398.1z"/>
	<path d="M604.3,386.2c3.4,0,4.5,4.5,4.5,11.9s-1.1,12.1-4.5,12.1h-68.4c-3.4,0-4.5-4.7-4.5-12.1s1.1-11.9,4.5-11.9h17.3V243.6h25.9
		v142.6H604.3L604.3,386.2z"/>
	<path d="M647.7,398.1c0,7.4-1.1,12.1-4.5,12.1h-38.9c-3.4,0-4.5-4.7-4.5-12.1s1.1-11.9,4.5-11.9h38.9
		C646.6,386.2,647.7,390.7,647.7,398.1z"/>
	<path d="M686.6,398.1c0,7.4-1.1,12.1-4.5,12.1h-38.9c-3.4,0-4.5-4.7-4.5-12.1s1.1-11.9,4.5-11.9h38.9
		C685.5,386.2,686.6,390.7,686.6,398.1z"/>
	<path d="M725.5,398.1c0,7.4-1.1,12.1-4.5,12.1h-38.9c-3.4,0-4.5-4.7-4.5-12.1s1.1-11.9,4.5-11.9H721
		C724.4,386.2,725.5,390.7,725.5,398.1z"/>
	<path d="M764.5,398.1c0,7.4-1.1,12.1-4.5,12.1H721c-3.4,0-4.5-4.7-4.5-12.1s1.1-11.9,4.5-11.9H760
		C763.3,386.2,764.5,390.7,764.5,398.1z"/>
	<path d="M783.8,301h25.9v109.3H760c-3.4,0-4.5-4.7-4.5-12.1s1.1-11.9,4.5-11.9h23.8V301z M781.8,269.7c0-9,6.5-15.5,15.1-15.5
		s15.1,6.5,15.1,15.5s-6.5,15.8-15.1,15.8C788.3,285.4,781.8,278.7,781.8,269.7z"/>
	<path d="M844.1,222.6c-5.2,0-6.5,4.5-6.5,9.9h-14.4c0-14.6,4.5-26.3,18.5-26.3c13.3,0,23.8,10.4,31.7,10.4c5.2,0,6.5-4.1,6.5-9.4
		h14.4c0,14.6-4.5,26.1-18.5,26.1C862.5,233.2,852.2,222.6,844.1,222.6z M845.7,243.6h25.9v166.7h-25.9V243.6z"/>
</g>
</svg>
